<svg xmlns="http://www.w3.org/2000/svg" viewBox="0 0 16 16" width="16" height="16">
  <title>NoPass — passwordless sudo inactive</title>
  <!-- Body and keyhole are ONE path with evenodd, so the keyhole is a hole the
       panel background shows through. Painting it white made it invisible on a
       white-on-dark symbolic theme, which is every dark panel. -->
  <path fill="currentColor" fill-rule="evenodd"
        d="M4.2 7h7.6a1.2 1.2 0 0 1 1.2 1.2v4.6a1.2 1.2 0 0 1-1.2 1.2H4.2A1.2 1.2 0 0 1 3 12.8V8.2A1.2 1.2 0 0 1 4.2 7Zm3.8 2a1.1 1.1 0 0 0-.55 2.05V12.3a.55.55 0 0 0 1.1 0v-1.25A1.1 1.1 0 0 0 8 9Z"/>
  <path d="M4.9 7V4.9a3.1 3.1 0 0 1 6.2 0V7" fill="none" stroke="currentColor" stroke-width="1.4" stroke-linecap="round"/>
</svg>
